<svg version="1.1" id="Layer_1" xmlns="http://www.w3.org/2000/svg" xmlns:xlink="http://www.w3.org/1999/xlink" x="0px" y="0px"
	 width="100%" viewBox="0 0 800 592" enable-background="new 0 0 800 592" xml:space="preserve">
<path fill="#000000" opacity="1.000000" stroke="none" 
	d="
M256.173706,425.237122 
	C255.075668,425.745544 254.327820,426.112885 253.572128,426.463257 
	C245.914337,430.014099 244.458237,433.543243 247.601334,441.324493 
	C248.387405,443.270477 250.035172,444.427979 252.058167,445.029541 
	C253.622696,445.494720 255.405273,445.685211 255.845001,447.729919 
	C252.873993,451.036957 243.673645,452.936615 240.294937,450.993591 
	C239.123291,450.319763 238.890503,449.247467 238.712677,448.065277 
	C238.390991,445.926697 238.148773,443.762207 237.621811,441.671967 
	C236.946365,438.992798 236.692078,435.802307 232.955063,435.450073 
	C229.874237,435.159698 224.470032,439.143646 223.628281,442.072235 
	C223.028671,444.158264 224.010635,445.172363 225.819702,445.844360 
	C226.963165,446.269135 227.934326,447.078674 227.914322,448.380219 
	C227.888977,450.027588 226.419312,450.695953 225.194183,450.877869 
	C220.973755,451.504547 216.947708,452.772095 212.475494,452.636780 
	C205.889801,452.437561 199.338242,454.444824 192.632599,453.998383 
	C189.145966,453.766296 185.635620,453.792114 182.138199,453.845673 
	C177.882095,453.910828 174.634644,452.393768 173.122620,448.236786 
	C172.168961,445.614929 170.011078,444.937378 167.709366,444.413910 
	C141.561478,438.467224 114.982826,435.131592 88.487228,431.266174 
	C75.654648,429.394073 62.901535,426.983429 50.090847,424.952820 
	C42.861958,423.806976 35.601025,422.837311 28.331690,421.982483 
	C24.063435,421.480591 22.564495,419.493591 22.578821,415.097198 
	C22.717279,372.608093 21.751228,330.126129 21.465452,287.637787 
	C21.209940,249.648987 21.063486,211.655426 20.566013,173.668472 
	C20.452888,165.030167 19.902977,156.369583 19.871964,147.712646 
	C19.850838,141.816254 22.825459,139.242554 28.358618,140.839554 
	C31.627169,141.782913 32.740719,140.140610 33.560528,137.882263 
	C34.680302,134.797623 35.445225,131.584167 36.425915,128.206711 
	C40.616459,128.322525 43.900696,130.966537 47.808289,131.686417 
	C68.256256,135.453461 88.794624,138.647537 109.358841,141.674683 
	C127.316589,144.318130 144.851440,148.971527 162.473495,153.090622 
	C171.468094,155.193085 179.782700,159.965866 187.899307,164.561005 
	C191.858978,166.802750 194.484650,166.756973 197.720261,163.023300 
	C206.372513,153.039246 218.338791,147.369537 229.082413,140.123398 
	C235.572235,135.746277 242.155380,131.501434 248.792358,127.350296 
	C254.821945,123.579041 259.837402,118.808853 263.873535,112.981499 
	C264.821991,111.612114 265.606049,109.999046 267.917145,110.870346 
	C269.789093,114.353699 266.018036,117.894295 268.164948,122.079964 
	C272.827881,120.658226 276.615417,123.301109 280.515472,125.868973 
	C283.242218,127.664284 285.849121,126.833603 288.321289,124.874100 
	C290.359283,123.258766 292.493286,120.952988 295.400696,122.356087 
	C298.446899,123.826172 299.265625,127.046097 299.128876,130.039139 
	C298.780396,137.666779 300.362701,145.349976 298.454224,152.934875 
	C298.176453,154.038727 298.327240,155.257721 298.328308,156.423386 
	C298.377594,210.036575 298.701813,263.651398 298.377594,317.262299 
	C298.204346,345.916779 298.599701,374.583832 297.465118,403.235535 
	C297.282074,407.857727 295.774689,409.964539 291.261810,411.215393 
	C279.202118,414.557953 268.040009,420.301178 256.173706,425.237122 
M39.195667,136.194290 
	C38.761230,141.505844 38.215511,146.802216 38.413315,152.155609 
	C38.991352,167.799881 39.890270,183.447678 39.899780,199.094543 
	C39.922951,237.226135 39.469231,275.357819 39.306488,313.489868 
	C39.250343,326.645386 39.557190,339.802094 39.571465,352.958435 
	C39.588631,368.783264 39.492542,384.608398 39.394211,400.433105 
	C39.372311,403.957153 40.715649,406.251923 44.422600,406.581238 
	C64.842453,408.395325 84.654343,413.914734 104.996017,416.334015 
	C131.752136,419.516174 157.974319,426.149963 184.764755,429.255646 
	C191.280090,430.010956 192.629074,429.145081 192.647812,422.691589 
	C192.796310,371.543579 192.970093,320.395508 193.045090,269.247345 
	C193.088821,239.416122 192.840714,209.583847 193.031555,179.754013 
	C193.066055,174.362518 191.124405,171.093109 186.696884,168.393951 
	C180.793243,164.794907 174.226364,162.979721 167.953552,160.356964 
	C152.348953,153.832428 135.611923,151.879166 119.441154,147.710922 
	C108.696060,144.941238 97.445732,144.196884 86.517242,142.057205 
	C72.151352,139.244537 57.532372,137.845978 43.317047,134.210434 
	C41.876709,133.842072 39.942242,132.757339 39.195667,136.194290 
M266.101959,219.184525 
	C265.405121,187.371552 261.901978,155.715561 261.763428,122.819794 
	C252.959457,128.649200 245.326981,133.654510 237.744797,138.734894 
	C226.825790,146.051056 215.025742,152.036545 204.871933,160.507980 
	C199.062515,165.354858 196.124222,171.141861 196.173645,179.119156 
	C196.456375,224.755219 196.378235,270.393921 196.317184,316.031586 
	C196.271713,350.020081 196.053375,384.008362 195.965057,417.996857 
	C195.959747,420.042938 195.268417,422.389221 197.870682,424.301117 
	C200.743683,422.771820 203.819641,421.195709 206.830856,419.504303 
	C208.217758,418.725311 208.863419,417.451385 208.921112,415.778503 
	C209.218491,407.153564 209.231369,398.583252 205.205505,390.601715 
	C202.717239,385.668549 203.711929,381.294647 207.236633,377.252625 
	C208.422272,375.892975 210.487610,374.033630 209.437439,372.571228 
	C207.047852,369.243652 208.388382,365.714569 207.752258,362.379303 
	C206.989182,358.378479 208.702866,356.371857 211.543381,354.612640 
	C214.647949,352.689850 217.854904,352.048889 220.483917,355.310852 
	C221.895782,357.062653 224.232086,356.384430 226.006866,357.944550 
	C222.627151,361.961029 226.604126,365.198517 226.810745,368.801239 
	C229.046555,369.681915 230.686844,368.578430 232.424423,368.165131 
	C236.695145,367.149261 240.166718,364.239105 244.295929,363.004791 
	C251.160706,360.952759 255.219803,356.578796 257.105286,349.715576 
	C259.758209,340.058838 260.978455,330.135284 262.528870,320.306122 
	C264.732330,306.336975 265.092072,292.149353 266.058624,278.037872 
	C267.381287,258.727936 266.952972,239.429199 266.101959,219.184525 
M63.926201,418.116028 
	C63.119469,418.234772 62.225361,418.215149 61.902943,419.954803 
	C81.686523,423.756744 101.441284,427.506439 121.627159,428.427368 
	C102.914566,423.308350 83.770103,420.748932 63.926201,418.116028 
M252.349655,371.782806 
	C251.282211,374.016022 249.882172,376.157715 249.235535,378.506744 
	C248.504852,381.161133 249.857269,383.599670 251.718201,385.426331 
	C252.535309,386.228424 254.218262,385.773132 254.654556,384.553436 
	C256.779236,378.613678 258.854492,372.633148 258.387512,365.901886 
	C254.281113,365.960022 253.944214,369.029938 252.349655,371.782806 
M245.843384,389.783295 
	C242.459671,390.019958 240.184525,392.381470 237.683502,394.203400 
	C235.494034,395.798309 236.033539,397.950836 237.233276,399.966736 
	C238.467285,402.040314 239.994141,401.111328 241.499252,400.329681 
	C243.701355,399.186035 245.985260,398.177521 248.093292,396.881989 
	C249.902496,395.770111 252.110580,394.475525 251.566223,391.955811 
	C251.015335,389.405853 248.389999,390.190033 245.843384,389.783295 
M266.890259,369.657745 
	C265.957642,377.864410 266.858032,386.332397 262.939667,394.407379 
	C267.130951,394.485291 268.782928,392.584564 268.788239,389.019379 
	C268.798584,382.067383 268.790710,375.115204 268.749634,368.163391 
	C268.745392,367.441193 268.814636,366.450928 267.286896,366.595581 
	C267.173553,367.340729 267.053619,368.129059 266.890259,369.657745 
M230.326752,380.401855 
	C228.829086,382.317352 229.786942,383.595642 231.603683,384.227112 
	C236.117081,385.795990 243.544556,381.027924 245.073227,374.575684 
	C240.085037,377.124115 235.512955,378.667877 230.326752,380.401855 
M146.854355,431.514984 
	C140.235916,429.555969 133.579346,427.938538 126.612984,428.956482 
	C132.058716,431.848022 138.031616,432.439453 143.866928,433.507904 
	C145.018402,433.718750 146.984512,434.201111 146.854355,431.514984 
M228.579163,412.854858 
	C228.671494,413.335968 228.648575,413.881989 228.876511,414.286713 
	C229.771408,415.875916 229.622040,419.047668 232.178482,418.404114 
	C235.199127,417.643738 232.733032,415.126892 232.675140,413.422028 
	C232.634644,412.229218 232.960403,410.714722 231.374649,409.838623 
	C229.903854,409.888458 229.234726,410.973480 228.579163,412.854858 
M222.567230,368.562195 
	C222.130539,366.772461 221.019241,365.972687 219.290894,366.736725 
	C218.215927,367.211914 218.110886,368.408905 218.724411,369.287659 
	C219.939438,371.027893 221.304459,371.257904 222.567230,368.562195 
z"/>
<path fill="#000000" opacity="1.000000" stroke="none" 
	d="
M591.018066,231.239029 
	C595.635742,239.326035 590.368225,247.971893 583.009338,255.298904 
	C573.919434,264.349457 562.145203,268.762177 550.314575,273.186951 
	C542.616455,276.066101 534.889526,278.172424 526.799561,279.168945 
	C524.411133,279.463135 523.313110,280.697144 522.184570,282.932678 
	C516.502747,294.187836 513.601074,306.310455 510.774475,318.429993 
	C509.791748,322.643585 507.534515,324.747314 503.732178,325.808777 
	C501.328033,326.479919 498.922455,327.151398 496.498535,327.745270 
	C491.243530,329.032684 488.727356,326.747040 489.871918,321.408722 
	C490.742035,317.350433 492.113739,313.400146 493.248138,309.397797 
	C493.606598,308.133026 494.110321,306.867706 493.536041,305.543549 
	C492.416565,304.704865 491.556549,305.375244 490.934509,306.120148 
	C487.135223,310.670288 482.097992,311.563873 476.524200,311.444702 
	C467.393372,311.249420 462.018127,306.185181 461.690491,296.932007 
	C461.532867,292.480743 461.663361,288.019318 461.663361,282.606781 
	C454.637299,288.052002 450.041260,294.532135 445.005524,300.544495 
	C441.797150,304.375061 439.473358,308.760895 438.050140,313.684845 
	C436.253418,319.901154 433.313171,321.068054 424.617279,320.300018 
	C419.277313,319.828339 417.539795,316.683685 417.618744,311.859985 
	C417.623505,311.568542 417.349762,311.272522 417.196838,310.960785 
	C415.565247,309.828247 414.362579,311.027618 413.162079,311.802399 
	C404.383606,317.468170 398.133789,315.189758 392.014557,310.449707 
	C388.242798,307.528076 387.321747,297.340485 389.969330,291.021942 
	C392.327820,285.393219 394.653992,279.729156 397.436829,274.307800 
	C399.251343,270.772858 402.936737,269.421356 406.729095,269.593445 
	C410.297119,269.755341 411.503387,273.203125 409.399597,277.380829 
	C406.112305,283.908813 404.431946,290.779449 404.348389,298.037750 
	C404.277374,304.208130 407.412292,306.315063 412.943787,303.710815 
	C420.109009,300.337494 423.433838,293.434601 426.261993,286.865356 
	C430.624176,276.732758 436.871124,267.679962 441.245728,257.691071 
	C448.909790,259.572021 452.012909,264.335449 450.813721,271.547424 
	C449.901459,277.033813 447.888397,282.110718 445.734406,287.171936 
	C445.120605,288.614227 443.722351,289.937561 444.710968,291.830444 
	C447.120453,291.867584 448.065643,289.877350 449.382324,288.503387 
	C453.415802,284.294495 457.483368,280.111115 461.347961,275.749695 
	C464.683319,271.985535 468.672974,272.080963 472.761322,273.626282 
	C476.694489,275.112946 476.645508,278.830566 476.262146,282.140625 
	C475.670685,287.247620 474.611938,292.300415 473.755127,297.376831 
	C473.279694,300.193726 472.517059,303.364227 475.391418,305.130096 
	C477.972260,306.715637 480.697479,305.125244 482.773956,303.497955 
	C490.962524,297.080475 499.160309,291.146423 502.683014,280.110352 
	C505.834686,270.236725 511.665039,261.219086 516.300232,251.817230 
	C517.161011,250.071320 518.580505,248.511307 518.282349,246.252106 
	C515.851807,244.313293 513.452576,246.149582 511.160767,246.459045 
	C507.225739,246.990341 505.817810,245.083572 506.012360,241.711319 
	C506.242706,237.717987 507.255859,233.838867 508.685577,230.076477 
	C509.928986,226.804474 513.156128,227.478012 515.507935,226.909714 
	C517.248352,226.489166 520.285156,222.795914 521.569092,227.881744 
	C521.631958,228.130783 525.015503,227.904999 526.656006,227.334549 
	C539.398376,222.903671 552.621033,222.055481 565.945801,221.596405 
	C574.682678,221.295395 582.508606,223.424118 589.337524,228.929092 
	C589.964294,229.434357 590.357117,230.229889 591.018066,231.239029 
M553.512451,260.726135 
	C554.759033,258.603088 556.759705,257.676178 558.998657,256.838409 
	C564.885071,254.635818 571.152466,253.148209 576.102356,248.985764 
	C578.064331,247.335907 580.901367,245.605759 580.137634,242.631561 
	C579.418335,239.830231 576.804321,238.136887 573.988586,237.326538 
	C563.651794,234.351685 554.023560,237.936035 544.342102,240.753036 
	C543.483521,241.002853 542.660278,241.906998 542.142944,242.713913 
	C537.489197,249.973419 533.067627,257.374542 529.341003,265.159119 
	C528.659973,266.581787 527.854675,268.296722 529.487000,269.753601 
	C530.983215,271.088989 532.597229,270.575165 534.157898,269.909637 
	C540.532654,267.191284 547.239075,265.171143 553.512451,260.726135 
z"/>
<path fill="#000000" opacity="1.000000" stroke="none" 
	d="
M769.397034,308.263000 
	C765.862915,312.936371 762.487549,317.234100 758.565308,321.142487 
	C753.275574,326.413391 747.029419,329.391235 740.089050,326.541077 
	C732.793701,323.545074 729.377563,316.863190 728.715759,309.002716 
	C728.539429,306.908508 728.689087,304.786804 728.689087,302.453949 
	C726.439087,303.089661 725.661682,304.657593 724.568481,305.809174 
	C719.505676,311.142120 710.707764,313.237091 703.906372,310.651672 
	C697.968384,308.394409 694.821899,302.714142 694.642151,294.410126 
	C694.563965,290.798981 695.513245,287.165985 694.489685,282.881073 
	C687.963562,287.991913 683.412598,294.289642 678.483337,300.185486 
	C674.942932,304.420166 672.462585,309.253723 670.859436,314.643799 
	C669.097961,320.566376 656.880310,322.712311 652.686890,318.145111 
	C650.282043,315.525909 652.116211,312.371063 651.314819,308.875824 
	C644.955933,312.777618 638.843628,317.332367 631.016113,313.774628 
	C623.505737,310.361023 621.387024,306.026459 622.372192,295.316528 
	C616.447693,295.722412 610.568665,296.029968 604.712219,296.578949 
	C602.710510,296.766602 602.508240,298.842163 601.903870,300.355194 
	C599.839722,305.522156 597.173157,310.269836 592.768372,313.862000 
	C584.201416,320.848450 575.013672,317.606873 573.132263,306.751923 
	C571.768066,298.881226 574.704529,291.959473 578.935852,285.596802 
	C580.648560,283.021332 581.119385,280.956573 580.080017,277.834991 
	C578.411316,272.823273 576.934998,267.354370 582.169983,263.157593 
	C589.027405,257.660187 596.217163,259.594757 601.460571,268.411316 
	C604.438660,273.418884 605.534485,278.989227 605.268555,284.724152 
	C605.086426,288.651520 606.497803,290.354218 610.414795,289.886444 
	C610.578857,289.866852 610.747864,289.886444 610.914429,289.890167 
	C624.299316,290.187256 626.613525,288.638519 630.531616,275.756256 
	C631.990417,270.959442 635.847900,270.015717 639.720032,269.672150 
	C643.332397,269.351654 645.128662,273.197083 643.051086,276.957489 
	C639.300781,283.745636 638.077393,290.985931 638.031128,298.590424 
	C637.992310,304.983582 640.166443,306.463409 645.931396,304.000244 
	C653.566101,300.738159 656.704590,293.640472 659.620667,286.918915 
	C664.006409,276.809448 670.136047,267.669678 674.439331,257.628693 
	C682.117065,259.604828 685.210266,264.139160 684.109436,271.482025 
	C683.235352,277.312531 680.953064,282.664001 678.602051,288.005798 
	C677.960754,289.462738 676.632385,290.743317 677.130432,292.875641 
	C679.422913,292.769623 680.395020,290.868561 681.661987,289.543427 
	C686.035889,284.968750 690.435059,280.410339 694.618164,275.663849 
	C697.812317,272.039490 701.661133,272.266785 705.624329,273.388000 
	C709.879211,274.591705 709.520325,278.432800 709.534668,281.666656 
	C709.561279,287.668457 706.691772,293.319427 707.124207,299.407806 
	C707.271973,301.488281 706.370422,304.055389 708.771973,305.267578 
	C711.080322,306.432648 713.364990,305.348663 715.322937,303.983551 
	C724.167480,297.816772 732.428162,291.305939 733.989319,279.434296 
	C734.524170,275.366974 736.160767,271.404572 737.602844,267.508545 
	C738.856689,264.120972 739.314453,261.422241 734.900269,260.170380 
	C733.698486,259.829559 732.440369,259.068604 732.070984,257.311798 
	C733.548218,254.891403 736.416565,255.093658 738.607849,254.920242 
	C742.370117,254.622482 744.234558,252.767380 745.590210,249.562653 
	C747.536743,244.960648 749.756531,240.499863 752.923889,236.540314 
	C755.362427,233.491898 758.415527,231.971146 762.110901,232.910477 
	C766.030823,233.906891 765.489136,237.797302 766.191833,240.741257 
	C766.978943,244.038544 765.285400,247.267288 765.583923,250.823380 
	C770.785095,251.777863 776.199524,249.419418 781.049194,251.802872 
	C781.428284,253.714172 780.147827,254.064499 779.166687,254.581116 
	C777.077087,255.681351 774.860962,256.348358 772.470886,256.356476 
	C765.651917,256.379639 761.268921,258.990479 759.039917,266.114624 
	C755.677979,276.859589 749.221863,286.524017 747.788574,298.022247 
	C747.331238,301.690918 747.254150,305.327087 747.373169,308.981354 
	C747.454346,311.473541 747.595520,314.259552 750.245239,315.438660 
	C752.765259,316.560089 755.020142,315.280548 757.179688,313.779785 
	C765.312317,308.128174 770.283630,300.238007 773.669617,291.137360 
	C774.437988,289.071991 774.919189,286.690460 778.359314,284.872253 
	C777.530029,294.107971 773.359741,300.961945 769.397034,308.263000 
M598.564758,272.149780 
	C598.212830,271.222809 598.027954,270.179810 597.479004,269.389679 
	C595.510559,266.556274 593.402893,263.050476 589.413330,264.318665 
	C585.342896,265.612579 584.804077,269.498962 585.133789,273.398926 
	C585.552979,278.358185 588.814392,281.788300 591.567993,285.476379 
	C592.705627,287.000122 594.301147,288.025269 596.311340,287.411041 
	C598.272461,286.811859 599.118042,285.074493 599.446594,283.257477 
	C600.074951,279.783203 599.524231,276.341614 598.564758,272.149780 
M588.978943,299.708282 
	C587.895081,302.356445 586.226562,304.948608 588.272827,308.622437 
	C591.894714,304.807861 593.776062,300.764343 595.349792,295.980347 
	C591.925415,295.691132 590.546692,297.255951 588.978943,299.708282 
M759.760071,242.714859 
	C759.638062,241.448288 760.408325,240.005295 758.842651,238.147125 
	C757.814392,243.031921 753.939148,246.586533 756.335754,252.084320 
	C759.506409,249.403671 758.981628,246.213898 759.760071,242.714859 
M754.344910,259.901764 
	C752.463867,260.218475 752.151489,261.853882 751.777954,263.238708 
	C750.621887,267.524414 749.616577,271.850861 748.552795,276.161469 
	C750.608093,270.737946 754.776184,266.147858 754.344910,259.901764 
z"/>
<path fill="#000000" opacity="1.000000" stroke="none" 
	d="
M390.528931,260.682007 
	C384.316223,264.097046 378.660431,268.254730 372.326141,270.179657 
	C362.868744,273.053680 354.140320,278.592834 343.789124,278.450623 
	C337.461426,278.363678 335.088593,283.278656 333.199829,287.957336 
	C329.275421,297.678497 326.074432,307.690277 324.376160,318.059631 
	C323.678314,322.320648 321.497406,324.597717 317.630005,325.697876 
	C314.911652,326.471191 312.194305,327.263397 309.442505,327.900208 
	C304.229980,329.106506 301.632629,326.667053 302.979675,321.365662 
	C304.780792,314.277252 307.223053,307.353577 309.098511,300.281860 
	C313.565430,283.438385 321.050049,267.879364 329.032196,252.514801 
	C329.856354,250.928375 331.371796,249.291519 330.345428,247.443054 
	C329.092163,245.186050 326.682526,246.110291 324.890625,246.455185 
	C319.981964,247.399979 318.959259,244.829865 319.343048,240.830780 
	C319.548706,238.688339 319.775055,236.505325 320.371155,234.450623 
	C322.435455,227.335114 329.300293,224.146149 336.322205,227.019333 
	C338.048401,227.725647 339.548004,227.398224 341.148773,226.856003 
	C351.308105,223.414886 361.894257,222.759079 372.465637,221.664597 
	C380.286163,220.854889 387.673981,220.850998 395.012970,224.123535 
	C407.015839,229.475754 409.347595,237.578751 401.958801,248.423157 
	C398.817108,253.034180 394.898285,256.789825 390.528931,260.682007 
M392.293762,240.985611 
	C388.852783,237.331055 384.518463,236.121689 379.641479,236.256531 
	C372.762970,236.446732 366.215637,238.455368 359.562469,239.865112 
	C358.478119,240.094864 357.193634,240.692337 356.561401,241.538223 
	C350.968140,249.021667 346.482574,257.198669 342.658783,265.675842 
	C341.223663,268.857452 343.682251,271.230469 346.831726,269.939240 
	C353.093872,267.371826 360.093567,265.907562 365.104065,261.195618 
	C368.086853,258.390533 371.479584,257.291260 374.929230,255.834763 
	C379.065155,254.088501 383.431335,252.696411 387.214417,250.366180 
	C390.225189,248.511658 394.142395,246.461029 392.293762,240.985611 
z"/>
<path fill="#000000" opacity="1.000000" stroke="none" 
	d="
M412.411438,258.512268 
	C409.690247,262.380249 406.680878,264.271362 402.284058,261.835724 
	C402.407959,258.793579 403.920319,256.587952 405.314850,254.404907 
	C406.875854,251.961258 409.339020,252.312958 411.510651,253.241241 
	C413.883514,254.255585 413.782349,256.196136 412.411438,258.512268 
z"/>
<path fill="#000000" opacity="1.000000" stroke="none" 
	d="
M645.355347,259.240814 
	C644.686157,260.033630 644.301514,260.604462 643.775330,260.973785 
	C641.733765,262.406708 639.658203,263.810120 637.012024,262.344604 
	C635.687317,261.610901 635.705566,260.448364 636.307068,259.389496 
	C637.775269,256.804626 638.044189,253.104034 642.055908,252.741959 
	C646.058228,252.380737 647.455017,254.864395 645.355347,259.240814 
z"/>
</svg>